<?xml version="1.0" standalone="no"?>
<!DOCTYPE svg PUBLIC "-//W3C//DTD SVG 20010904//EN"
 "http://www.w3.org/TR/2001/REC-SVG-20010904/DTD/svg10.dtd">
<svg version="1.0" xmlns="http://www.w3.org/2000/svg"
 width="481.000000pt" height="481.000000pt" viewBox="0 0 481.000000 481.000000"
 preserveAspectRatio="xMidYMid meet">

<g transform="translate(0.000000,481.000000) scale(0.100000,-0.100000)"
fill="#000000" stroke="none">
<path d="M1005 3834 c-49 -27 -73 -54 -92 -103 -17 -43 -18 -132 -18 -1528 0
-1481 0 -1482 21 -1509 11 -15 37 -41 58 -58 31 -26 47 -31 104 -34 66 -3 69
-2 161 52 51 31 96 56 99 56 3 0 13 6 21 14 9 7 41 27 71 43 30 16 179 101
330 188 151 87 291 167 310 178 19 10 60 34 91 53 31 19 62 34 68 34 6 0 11 5
11 10 0 6 5 10 12 10 6 0 19 6 27 14 9 7 57 35 106 61 50 26 101 56 115 65 14
10 50 31 80 48 30 16 138 78 240 137 102 60 205 119 230 133 25 14 50 28 55
32 6 4 30 19 55 32 171 95 446 261 486 294 70 57 104 116 104 180 0 37 -4 54
-15 58 -8 3 -15 12 -15 19 0 28 -42 67 -127 118 -47 29 -92 52 -100 52 -7 0
-13 5 -13 10 0 5 -6 7 -14 4 -8 -3 -17 1 -20 9 -3 9 -10 13 -15 10 -5 -3 -12
2 -15 11 -6 15 -8 15 -16 3 -8 -12 -10 -12 -10 4 0 11 -5 16 -14 13 -8 -3 -17
1 -20 9 -3 9 -10 13 -15 10 -5 -3 -12 1 -15 10 -3 8 -10 12 -16 9 -5 -3 -10
-2 -10 4 0 5 -26 22 -57 38 -32 15 -61 32 -64 37 -4 5 -12 5 -18 2 -6 -4 -11
-1 -11 7 0 13 -12 19 -48 27 -4 1 -12 11 -19 23 -6 12 -13 20 -15 18 -2 -3
-14 2 -28 11 -61 38 -198 116 -227 129 -18 7 -33 18 -33 23 0 4 -7 6 -15 2 -9
-3 -15 0 -15 10 0 10 -6 14 -14 11 -8 -3 -17 1 -20 9 -3 9 -10 13 -15 10 -5
-3 -12 2 -15 11 -6 15 -8 15 -16 3 -8 -13 -10 -13 -10 1 0 15 -32 33 -52 30
-5 -1 -8 3 -8 8 0 9 -247 156 -263 156 -4 0 -11 5 -15 12 -4 6 -20 15 -35 18
-15 4 -27 11 -27 16 0 5 -8 13 -17 16 -10 4 -36 17 -57 31 -22 13 -46 25 -55
26 -8 2 -17 8 -19 14 -2 7 -10 12 -18 12 -8 0 -14 5 -14 11 0 6 -7 9 -15 5 -8
-3 -15 -1 -15 5 0 6 -7 9 -15 5 -9 -3 -15 0 -15 9 0 8 -7 15 -15 15 -8 0 -15
5 -15 11 0 6 -6 9 -14 6 -8 -3 -17 1 -20 9 -3 9 -10 13 -15 10 -5 -3 -12 1
-15 10 -4 9 -9 14 -12 11 -4 -3 -21 4 -38 17 -17 13 -38 26 -46 29 -8 4 -33
18 -55 31 -22 14 -59 35 -82 46 -24 11 -43 25 -43 31 0 6 -4 8 -9 4 -5 -3 -12
-1 -16 5 -4 6 -11 8 -16 5 -5 -4 -12 1 -15 9 -3 9 -10 13 -15 10 -5 -3 -12 2
-15 10 -3 9 -10 14 -14 11 -5 -3 -11 -1 -15 5 -4 6 -11 8 -16 5 -5 -4 -12 1
-15 9 -3 9 -12 16 -20 16 -8 0 -14 3 -14 8 0 10 -62 37 -77 34 -7 -2 -13 4
-13 13 0 8 -7 15 -15 15 -8 0 -15 4 -15 9 0 8 -37 24 -52 22 -5 -1 -8 4 -8 9
0 6 -7 10 -15 10 -8 0 -15 5 -15 11 0 6 -7 9 -15 5 -8 -3 -15 -1 -15 5 0 6 -5
9 -12 7 -7 -3 -21 7 -33 20 -27 32 -134 41 -180 16z m663 -916 c23 -13 180
-104 350 -204 169 -100 327 -191 352 -204 25 -13 77 -45 116 -71 39 -27 74
-49 77 -49 16 0 178 -104 187 -120 15 -27 12 -72 -5 -97 -9 -12 -57 -46 -108
-76 -231 -136 -579 -334 -652 -372 -44 -23 -123 -68 -175 -100 -159 -97 -173
-103 -225 -106 -45 -3 -50 -1 -53 19 -2 12 -7 20 -11 18 -3 -3 -6 46 -6 107 0
62 -2 149 -5 195 -3 45 -2 82 1 82 7 0 2 329 -6 348 -2 6 0 12 4 12 5 0 8 55
6 123 -9 283 -4 433 13 464 16 29 51 53 77 53 11 0 40 -10 63 -22z"/>
<path d="M2200 3823 c-167 -29 -496 -135 -531 -170 -10 -11 2053 -1213 2082
-1213 4 0 27 -19 51 -43 76 -74 97 -171 54 -255 -28 -54 -53 -79 -116 -114
-45 -26 -466 -270 -1400 -814 -272 -158 -530 -308 -573 -332 -42 -24 -80 -48
-83 -53 -12 -20 291 -131 426 -157 114 -22 296 -34 351 -23 30 5 95 13 144 17
212 15 469 106 635 225 41 30 92 64 112 76 44 26 80 57 202 178 95 93 209 251
261 361 38 80 81 177 85 189 5 17 12 39 20 65 20 57 37 136 55 250 13 81 14
302 2 380 -28 188 -37 234 -59 295 -5 17 -13 48 -18 70 -4 22 -15 58 -25 80
-29 67 -67 140 -75 145 -3 3 -19 30 -33 62 -15 31 -37 69 -50 85 -13 15 -29
37 -35 48 -6 12 -23 36 -39 54 -42 50 -231 241 -238 241 -4 0 -25 16 -48 35
-22 19 -49 35 -59 35 -10 0 -18 6 -18 13 0 15 -47 47 -115 79 -27 13 -52 26
-55 29 -9 9 -178 79 -192 79 -8 0 -18 4 -24 9 -15 15 -232 59 -342 71 -100 10
-302 12 -352 3z m203 -119 c55 -28 87 -66 103 -121 14 -48 14 -58 0 -107 -11
-38 -27 -63 -52 -86 -50 -43 -79 -53 -149 -51 -50 2 -67 8 -107 37 -38 29 -51
45 -64 88 -15 49 -15 56 1 111 18 62 56 107 110 131 42 18 120 17 158 -2z
m784 -250 c103 -59 122 -197 40 -290 -42 -49 -77 -64 -145 -64 -49 0 -66 5
-106 32 -63 41 -86 80 -86 144 0 166 155 259 297 178z m567 -531 c51 -37 80
-93 80 -158 0 -134 -136 -227 -262 -180 -58 22 -77 38 -109 92 -24 41 -24 46
-13 110 13 79 45 122 113 154 58 28 137 20 191 -18z m-130 -1095 c55 -17 109
-73 125 -131 37 -131 -76 -262 -211 -244 -131 18 -202 132 -156 254 38 103
136 152 242 121z m-424 -522 c114 -75 115 -241 1 -321 -37 -26 -51 -30 -110
-30 -57 0 -74 4 -109 28 -131 86 -97 299 55 347 45 15 122 3 163 -24z m-786
-174 c16 -10 43 -34 60 -55 28 -35 31 -45 31 -111 0 -61 -4 -78 -25 -109 -58
-85 -186 -114 -265 -60 -81 55 -106 112 -87 201 27 128 175 197 286 134z"/>
</g>
</svg>
